*
*
G04 PADS 9.3 Build Number: 433611 generated Gerber (RS-274-X) file*
G04 PC Version=2.1*
*
%IN "canDynamix.pcb"*%
*
%MOMM*%
*
%FSLAX35Y35*%
*
*
*
*
G04 PC Standard Apertures*
*
*
G04 Thermal Relief Aperture macro.*
%AMTER*
1,1,$1,0,0*
1,0,$1-$2,0,0*
21,0,$3,$4,0,0,45*
21,0,$3,$4,0,0,135*
%
*
*
G04 Annular Aperture macro.*
%AMANN*
1,1,$1,0,0*
1,0,$2,0,0*
%
*
*
G04 Odd Aperture macro.*
%AMODD*
1,1,$1,0,0*
1,0,$1-0.005,0,0*
%
*
*
G04 PC Custom Aperture Macros*
*
*
*
*
*
*
G04 PC Aperture Table*
*
%ADD019C,0.254*%
%ADD021C,0.127*%
*
*
*
*
G04 PC Copper Outlines (0)*
G04 Layer Name canDynamix.pcb - dark (0)*
%LPD*%
*
*
G04 PC Area=Custom_Thermal*
*
G04 PC Custom Flashes*
G04 Layer Name canDynamix.pcb - flashes*
%LPD*%
*
*
G04 PC Circuitry*
G04 Layer Name canDynamix.pcb - circuitry*
%LPD*%
*
G54D19*
G01X2540000Y2590000D02*
G75*
G03X2590000Y2540000I50000J0D01*
G01X2540000Y2590000D02*
Y8090000D01*
X2590000Y8140000D02*
G03X2540000Y8090000I0J-50000D01*
G01X2590000Y8140000D02*
X9140000D01*
X9190000Y8090000D02*
G03X9140000Y8140000I-50000J0D01*
G01X9190000Y8090000D02*
Y4590000D01*
X9140000Y4540000D02*
G03X9190000Y4590000I0J50000D01*
G01X9140000Y4540000D02*
X8990000D01*
G03X8940000Y4490000I0J-50000*
G01Y2590000*
X8890000Y2540000D02*
G03X8940000Y2590000I0J50000D01*
G01X8890000Y2540000D02*
X2590000D01*
X3040000Y2890000D02*
G03X3040000I-150000J0D01*
G01Y7790000D02*
G03X3040000I-150000J0D01*
G01X8840000D02*
G03X8840000I-150000J0D01*
G01Y2890000D02*
G03X8840000I-150000J0D01*
G01X10540000Y6807200D02*
X17093200D01*
X10540000Y6197600D02*
X17093200D01*
X10540000Y5588000D02*
X17093200D01*
X10540000Y4978400D02*
X17093200D01*
X10540000Y4368800D02*
X17093200D01*
X10540000Y3759200D02*
X17093200D01*
X10540000Y3149600D02*
X17093200D01*
X10540000Y2540000D02*
X17093200D01*
X10540000Y6807200D02*
Y2540000D01*
X12673600Y6807200D02*
Y2540000D01*
X13588000Y6807200D02*
Y2540000D01*
X14502400Y6807200D02*
Y2540000D01*
X15874000Y6807200D02*
Y2540000D01*
X17093200Y6807200D02*
Y2540000D01*
G54D21*
X4084000Y3735000D02*
X4234000D01*
Y3885000*
X4084000*
Y3735000*
X4159000Y3810000D02*
Y3885000D01*
X3894000Y3735000D02*
X4044000D01*
Y3885000*
X3894000*
Y3735000*
X3969000Y3810000D02*
Y3885000D01*
X4159000Y3765000D02*
G03Y3855000I0J45000D01*
G01X3969000*
G03Y3765000I0J-45000*
G01X4159000*
X4084000Y3100000D02*
X4234000D01*
Y3250000*
X4084000*
Y3100000*
X4159000Y3175000D02*
Y3250000D01*
X3894000Y3100000D02*
X4044000D01*
Y3250000*
X3894000*
Y3100000*
X3969000Y3175000D02*
Y3250000D01*
X4159000Y3130000D02*
G03Y3220000I0J45000D01*
G01X3969000*
G03Y3130000I0J-45000*
G01X4159000*
X4370000Y3512500D02*
X4520000D01*
Y3662500*
X4370000*
Y3512500*
X4445000Y3587500D02*
Y3662500D01*
X4370000Y3322500D02*
X4520000D01*
Y3472500*
X4370000*
Y3322500*
X4445000Y3397500D02*
Y3472500D01*
X4490000Y3587500D02*
G03X4400000I-45000J0D01*
G01Y3397500*
G03X4490000I45000J0*
G01Y3587500*
X3227000Y7545000D02*
X3377000Y7695000D01*
Y7545000*
X3227000Y7695000*
Y7545000*
Y7799000D02*
X3377000Y7949000D01*
Y7799000*
X3227000Y7949000*
Y7799000*
X3481000Y7545000D02*
X3631000Y7695000D01*
Y7545000*
X3481000Y7695000*
Y7545000*
Y7799000D02*
X3631000Y7949000D01*
Y7799000*
X3481000Y7949000*
Y7799000*
X3735000Y7545000D02*
X3885000Y7695000D01*
Y7545000*
X3735000Y7695000*
Y7545000*
Y7799000D02*
X3885000Y7949000D01*
Y7799000*
X3735000Y7949000*
Y7799000*
X3989000Y7545000D02*
X4139000Y7695000D01*
Y7545000*
X3989000Y7695000*
Y7545000*
Y7799000D02*
X4139000Y7949000D01*
Y7799000*
X3989000Y7949000*
Y7799000*
X4243000Y7545000D02*
X4393000Y7695000D01*
Y7545000*
X4243000Y7695000*
Y7545000*
Y7799000D02*
X4393000Y7949000D01*
Y7799000*
X4243000Y7949000*
Y7799000*
X4497000Y7545000D02*
X4647000Y7695000D01*
Y7545000*
X4497000Y7695000*
Y7545000*
Y7799000D02*
X4647000Y7949000D01*
Y7799000*
X4497000Y7949000*
Y7799000*
X4751000Y7545000D02*
X4901000Y7695000D01*
Y7545000*
X4751000Y7695000*
Y7545000*
Y7799000D02*
X4901000Y7949000D01*
Y7799000*
X4751000Y7949000*
Y7799000*
X5005000Y7545000D02*
X5155000Y7695000D01*
Y7545000*
X5005000Y7695000*
Y7545000*
Y7799000D02*
X5155000Y7949000D01*
Y7799000*
X5005000Y7949000*
Y7799000*
X5259000Y7545000D02*
X5409000Y7695000D01*
Y7545000*
X5259000Y7695000*
Y7545000*
Y7799000D02*
X5409000Y7949000D01*
Y7799000*
X5259000Y7949000*
Y7799000*
X5513000Y7545000D02*
X5663000Y7695000D01*
Y7545000*
X5513000Y7695000*
Y7545000*
Y7799000D02*
X5663000Y7949000D01*
Y7799000*
X5513000Y7949000*
Y7799000*
X5767000Y7545000D02*
X5917000Y7695000D01*
Y7545000*
X5767000Y7695000*
Y7545000*
Y7799000D02*
X5917000Y7949000D01*
Y7799000*
X5767000Y7949000*
Y7799000*
X6021000Y7545000D02*
X6171000Y7695000D01*
Y7545000*
X6021000Y7695000*
Y7545000*
Y7799000D02*
X6171000Y7949000D01*
Y7799000*
X6021000Y7949000*
Y7799000*
X6275000Y7545000D02*
X6425000Y7695000D01*
Y7545000*
X6275000Y7695000*
Y7545000*
Y7799000D02*
X6425000Y7949000D01*
Y7799000*
X6275000Y7949000*
Y7799000*
X6529000Y7545000D02*
X6679000Y7695000D01*
Y7545000*
X6529000Y7695000*
Y7545000*
Y7799000D02*
X6679000Y7949000D01*
Y7799000*
X6529000Y7949000*
Y7799000*
X6783000Y7545000D02*
X6933000Y7695000D01*
Y7545000*
X6783000Y7695000*
Y7545000*
Y7799000D02*
X6933000Y7949000D01*
Y7799000*
X6783000Y7949000*
Y7799000*
X7037000Y7545000D02*
X7187000Y7695000D01*
Y7545000*
X7037000Y7695000*
Y7545000*
Y7799000D02*
X7187000Y7949000D01*
Y7799000*
X7037000Y7949000*
Y7799000*
X7291000Y7545000D02*
X7441000Y7695000D01*
Y7545000*
X7291000Y7695000*
Y7545000*
Y7799000D02*
X7441000Y7949000D01*
Y7799000*
X7291000Y7949000*
Y7799000*
X7545000Y7545000D02*
X7695000Y7695000D01*
Y7545000*
X7545000Y7695000*
Y7545000*
Y7799000D02*
X7695000Y7949000D01*
Y7799000*
X7545000Y7949000*
Y7799000*
X7799000Y7545000D02*
X7949000Y7695000D01*
Y7545000*
X7799000Y7695000*
Y7545000*
Y7799000D02*
X7949000Y7949000D01*
Y7799000*
X7799000Y7949000*
Y7799000*
X8053000Y7545000D02*
X8203000Y7695000D01*
Y7545000*
X8053000Y7695000*
Y7545000*
Y7799000D02*
X8203000Y7949000D01*
Y7799000*
X8053000Y7949000*
Y7799000*
X8572500Y4751000D02*
X8647500Y4826000D01*
X8572500Y4901000*
X8497500Y4826000*
X8572500Y4751000*
Y4826000D02*
Y4901000D01*
X8751500Y4751000D02*
X8901500Y4901000D01*
X8751500D02*
X8901500Y4751000D01*
X8572500Y5513000D02*
X8647500Y5588000D01*
X8572500Y5663000*
X8497500Y5588000*
X8572500Y5513000*
Y5588000D02*
Y5663000D01*
X8751500Y5513000D02*
X8901500Y5663000D01*
X8751500D02*
X8901500Y5513000D01*
X8572500Y6211500D02*
X8647500Y6286500D01*
X8572500Y6361500*
X8497500Y6286500*
X8572500Y6211500*
Y6286500D02*
Y6361500D01*
X8751500Y6211500D02*
X8901500Y6361500D01*
X8751500D02*
X8901500Y6211500D01*
X2719000Y3354000D02*
X2869000Y3504000D01*
X2719000D02*
X2869000Y3354000D01*
X2973000D02*
X3123000Y3504000D01*
X2973000D02*
X3123000Y3354000D01*
X3227000D02*
X3377000Y3504000D01*
X3227000D02*
X3377000Y3354000D01*
X2719000Y3608000D02*
X2869000Y3758000D01*
X2719000D02*
X2869000Y3608000D01*
X2973000D02*
X3123000Y3758000D01*
X2973000D02*
X3123000Y3608000D01*
X3227000D02*
X3377000Y3758000D01*
X3227000D02*
X3377000Y3608000D01*
X2719000Y6910000D02*
X2869000Y7060000D01*
X2719000D02*
X2869000Y6910000D01*
X2973000D02*
X3123000Y7060000D01*
X2973000D02*
X3123000Y6910000D01*
X3227000D02*
X3377000Y7060000D01*
X3227000D02*
X3377000Y6910000D01*
X2719000Y6656000D02*
X2869000Y6806000D01*
X2719000D02*
X2869000Y6656000D01*
X2973000D02*
X3123000Y6806000D01*
X2973000D02*
X3123000Y6656000D01*
X3227000D02*
X3377000Y6806000D01*
X3227000D02*
X3377000Y6656000D01*
X6529000Y6275000D02*
X6679000Y6425000D01*
X6529000D02*
X6679000Y6275000D01*
X6529000Y6021000D02*
X6679000Y6171000D01*
X6529000D02*
X6679000Y6021000D01*
X6529000Y5767000D02*
X6679000Y5917000D01*
X6529000D02*
X6679000Y5767000D01*
X6529000Y5513000D02*
X6679000Y5663000D01*
X6529000D02*
X6679000Y5513000D01*
X6529000Y5259000D02*
X6679000Y5409000D01*
X6529000D02*
X6679000Y5259000D01*
X6529000Y5005000D02*
X6679000Y5155000D01*
X6529000D02*
X6679000Y5005000D01*
X6529000Y4751000D02*
X6679000Y4901000D01*
X6529000D02*
X6679000Y4751000D01*
X6529000Y4497000D02*
X6679000Y4647000D01*
X6529000D02*
X6679000Y4497000D01*
X6529000Y4243000D02*
X6679000Y4393000D01*
X6529000D02*
X6679000Y4243000D01*
X6529000Y3989000D02*
X6679000Y4139000D01*
X6529000D02*
X6679000Y3989000D01*
X6529000Y3735000D02*
X6679000Y3885000D01*
X6529000D02*
X6679000Y3735000D01*
X6529000Y3481000D02*
X6679000Y3631000D01*
X6529000D02*
X6679000Y3481000D01*
X6529000Y3227000D02*
X6679000Y3377000D01*
X6529000D02*
X6679000Y3227000D01*
X6529000Y2973000D02*
X6679000Y3123000D01*
X6529000D02*
X6679000Y2973000D01*
X6529000Y2719000D02*
X6679000Y2869000D01*
X6529000D02*
X6679000Y2719000D01*
X8053000D02*
X8203000Y2869000D01*
X8053000D02*
X8203000Y2719000D01*
X8053000Y2973000D02*
X8203000Y3123000D01*
X8053000D02*
X8203000Y2973000D01*
X8053000Y3227000D02*
X8203000Y3377000D01*
X8053000D02*
X8203000Y3227000D01*
X8053000Y3481000D02*
X8203000Y3631000D01*
X8053000D02*
X8203000Y3481000D01*
X8053000Y3735000D02*
X8203000Y3885000D01*
X8053000D02*
X8203000Y3735000D01*
X8053000Y3989000D02*
X8203000Y4139000D01*
X8053000D02*
X8203000Y3989000D01*
X8053000Y4243000D02*
X8203000Y4393000D01*
X8053000D02*
X8203000Y4243000D01*
X8053000Y4497000D02*
X8203000Y4647000D01*
X8053000D02*
X8203000Y4497000D01*
X8053000Y4751000D02*
X8203000Y4901000D01*
X8053000D02*
X8203000Y4751000D01*
X8053000Y5005000D02*
X8203000Y5155000D01*
X8053000D02*
X8203000Y5005000D01*
X8053000Y5259000D02*
X8203000Y5409000D01*
X8053000D02*
X8203000Y5259000D01*
X8053000Y5513000D02*
X8203000Y5663000D01*
X8053000D02*
X8203000Y5513000D01*
X8053000Y5767000D02*
X8203000Y5917000D01*
X8053000D02*
X8203000Y5767000D01*
X8053000Y6021000D02*
X8203000Y6171000D01*
X8053000D02*
X8203000Y6021000D01*
X8053000Y6275000D02*
X8203000Y6425000D01*
X8053000D02*
X8203000Y6275000D01*
X8307000Y6783000D02*
X8457000Y6933000D01*
X8307000D02*
X8457000Y6783000D01*
X8561000D02*
X8711000Y6933000D01*
X8561000D02*
X8711000Y6783000D01*
X8815000D02*
X8965000Y6933000D01*
X8815000D02*
X8965000Y6783000D01*
X8815000Y7291000D02*
X8965000Y7441000D01*
X8815000D02*
X8965000Y7291000D01*
X8561000D02*
X8711000Y7441000D01*
X8561000D02*
X8711000Y7291000D01*
X8307000D02*
X8457000Y7441000D01*
X8307000D02*
X8457000Y7291000D01*
X6021000Y6021000D02*
X6171000Y6171000D01*
X6021000D02*
X6171000Y6021000D01*
X5767000D02*
X5917000Y6171000D01*
X5767000D02*
X5917000Y6021000D01*
X5513000D02*
X5663000Y6171000D01*
X5513000D02*
X5663000Y6021000D01*
X5259000D02*
X5409000Y6171000D01*
X5259000D02*
X5409000Y6021000D01*
X5005000D02*
X5155000Y6171000D01*
X5005000D02*
X5155000Y6021000D01*
X4751000D02*
X4901000Y6171000D01*
X4751000D02*
X4901000Y6021000D01*
X4497000D02*
X4647000Y6171000D01*
X4497000D02*
X4647000Y6021000D01*
X4243000D02*
X4393000Y6171000D01*
X4243000D02*
X4393000Y6021000D01*
X3989000D02*
X4139000Y6171000D01*
X3989000D02*
X4139000Y6021000D01*
X3735000D02*
X3885000Y6171000D01*
X3735000D02*
X3885000Y6021000D01*
X3989000Y6529000D02*
X4139000D01*
X3989000Y6679000*
X4139000*
X3989000Y6529000*
X4243000D02*
X4393000Y6679000D01*
X4243000D02*
X4393000Y6529000D01*
X4497000D02*
X4647000Y6679000D01*
X4497000D02*
X4647000Y6529000D01*
X4751000D02*
X4901000Y6679000D01*
X4751000D02*
X4901000Y6529000D01*
X5005000D02*
X5155000Y6679000D01*
X5005000D02*
X5155000Y6529000D01*
X5259000D02*
X5409000Y6679000D01*
X5259000D02*
X5409000Y6529000D01*
X5513000D02*
X5663000Y6679000D01*
X5513000D02*
X5663000Y6529000D01*
X5767000D02*
X5917000Y6679000D01*
X5767000D02*
X5917000Y6529000D01*
X6021000D02*
X6171000Y6679000D01*
X6021000D02*
X6171000Y6529000D01*
X3989000Y7037000D02*
X4139000D01*
X3989000Y7187000*
X4139000*
X3989000Y7037000*
X4243000D02*
X4393000Y7187000D01*
X4243000D02*
X4393000Y7037000D01*
X4497000D02*
X4647000Y7187000D01*
X4497000D02*
X4647000Y7037000D01*
X4751000D02*
X4901000Y7187000D01*
X4751000D02*
X4901000Y7037000D01*
X5005000D02*
X5155000Y7187000D01*
X5005000D02*
X5155000Y7037000D01*
X5259000D02*
X5409000Y7187000D01*
X5259000D02*
X5409000Y7037000D01*
X5513000D02*
X5663000Y7187000D01*
X5513000D02*
X5663000Y7037000D01*
X5767000D02*
X5917000Y7187000D01*
X5767000D02*
X5917000Y7037000D01*
X6021000D02*
X6171000Y7187000D01*
X6021000D02*
X6171000Y7037000D01*
X5005000Y3036500D02*
X5155000Y3186500D01*
X5005000D02*
X5155000Y3036500D01*
X5259000D02*
X5409000Y3186500D01*
X5259000D02*
X5409000Y3036500D01*
X5513000D02*
X5663000Y3186500D01*
X5513000D02*
X5663000Y3036500D01*
X2719000Y4751000D02*
X2869000Y4901000D01*
X2719000D02*
X2869000Y4751000D01*
X2973000D02*
X3123000Y4901000D01*
X2973000D02*
X3123000Y4751000D01*
X3227000D02*
X3377000Y4901000D01*
X3227000D02*
X3377000Y4751000D01*
X2719000Y5005000D02*
X2869000Y5155000D01*
X2719000D02*
X2869000Y5005000D01*
X2973000D02*
X3123000Y5155000D01*
X2973000D02*
X3123000Y5005000D01*
X3227000D02*
X3377000Y5155000D01*
X3227000D02*
X3377000Y5005000D01*
X2719000Y5259000D02*
X2869000Y5409000D01*
X2719000D02*
X2869000Y5259000D01*
X2973000D02*
X3123000Y5409000D01*
X2973000D02*
X3123000Y5259000D01*
X3227000D02*
X3377000Y5409000D01*
X3227000D02*
X3377000Y5259000D01*
X2719000Y5513000D02*
X2869000Y5663000D01*
X2719000D02*
X2869000Y5513000D01*
X2973000D02*
X3123000Y5663000D01*
X2973000D02*
X3123000Y5513000D01*
X3227000D02*
X3377000Y5663000D01*
X3227000D02*
X3377000Y5513000D01*
X2856800Y4101100D02*
X3006800Y4251100D01*
X2856800D02*
X3006800Y4101100D01*
X3110800D02*
X3260800Y4251100D01*
X3110800D02*
X3260800Y4101100D01*
X3100000Y6148000D02*
X3250000Y6298000D01*
X3100000D02*
X3250000Y6148000D01*
X2846000D02*
X2996000Y6298000D01*
X2846000D02*
X2996000Y6148000D01*
X7101300Y6905400D02*
X7251300Y7055400D01*
Y6905400*
X7101300Y7055400*
Y6905400*
X7609300D02*
X7759300Y7055400D01*
Y6905400*
X7609300Y7055400*
Y6905400*
X3481000Y2794000D02*
X3631000D01*
X3556000Y2719000D02*
Y2869000D01*
X3544500Y2857500D02*
X3694500D01*
X3619500Y2782500D02*
Y2932500D01*
X3608000Y2730500D02*
X3758000D01*
X3683000Y2655500D02*
Y2805500D01*
X6021000Y2921000D02*
X6171000D01*
X6096000Y2846000D02*
Y2996000D01*
X7418000Y2921000D02*
X7568000D01*
X7493000Y2846000D02*
Y2996000D01*
X7545000Y2921000D02*
X7695000D01*
X7620000Y2846000D02*
Y2996000D01*
X7291000Y2921000D02*
X7441000D01*
X7366000Y2846000D02*
Y2996000D01*
X7164000Y2921000D02*
X7314000D01*
X7239000Y2846000D02*
Y2996000D01*
X2973000Y3175000D02*
X3123000D01*
X3048000Y3100000D02*
Y3250000D01*
X3481000Y3111500D02*
X3631000D01*
X3556000Y3036500D02*
Y3186500D01*
X3544500Y3175000D02*
X3694500D01*
X3619500Y3100000D02*
Y3250000D01*
X3417500Y3048000D02*
X3567500D01*
X3492500Y2973000D02*
Y3123000D01*
X3608000Y3238500D02*
X3758000D01*
X3683000Y3163500D02*
Y3313500D01*
X6021000Y3302000D02*
X6171000D01*
X6096000Y3227000D02*
Y3377000D01*
X6021000Y3048000D02*
X6171000D01*
X6096000Y2973000D02*
Y3123000D01*
X7037000Y3302000D02*
X7187000D01*
X7112000Y3227000D02*
Y3377000D01*
X6656000Y3111500D02*
X6806000D01*
X6731000Y3036500D02*
Y3186500D01*
X7545000Y3302000D02*
X7695000D01*
X7620000Y3227000D02*
Y3377000D01*
X7418000Y3302000D02*
X7568000D01*
X7493000Y3227000D02*
Y3377000D01*
X7291000Y3302000D02*
X7441000D01*
X7366000Y3227000D02*
Y3377000D01*
X7164000Y3302000D02*
X7314000D01*
X7239000Y3227000D02*
Y3377000D01*
X7291000Y3111500D02*
X7441000D01*
X7366000Y3036500D02*
Y3186500D01*
X7926000Y3175000D02*
X8076000D01*
X8001000Y3100000D02*
Y3250000D01*
X8561000Y3302000D02*
X8711000D01*
X8636000Y3227000D02*
Y3377000D01*
X8434000Y3302000D02*
X8584000D01*
X8509000Y3227000D02*
Y3377000D01*
X8561000Y3175000D02*
X8711000D01*
X8636000Y3100000D02*
Y3250000D01*
X8561000Y3429000D02*
X8711000D01*
X8636000Y3354000D02*
Y3504000D01*
X8688000Y3302000D02*
X8838000D01*
X8763000Y3227000D02*
Y3377000D01*
X4179500Y3937000D02*
X4329500D01*
X4254500Y3862000D02*
Y4012000D01*
X7481500Y3937000D02*
X7631500D01*
X7556500Y3862000D02*
Y4012000D01*
X7481500Y3683000D02*
X7631500D01*
X7556500Y3608000D02*
Y3758000D01*
X7418000Y4000500D02*
X7568000D01*
X7493000Y3925500D02*
Y4075500D01*
X7418000Y3746500D02*
X7568000D01*
X7493000Y3671500D02*
Y3821500D01*
X8624500Y3619500D02*
X8774500D01*
X8699500Y3544500D02*
Y3694500D01*
X4179500Y4191000D02*
X4329500D01*
X4254500Y4116000D02*
Y4266000D01*
X5132000Y4127500D02*
X5282000D01*
X5207000Y4052500D02*
Y4202500D01*
X6910000Y4064000D02*
X7060000D01*
X6985000Y3989000D02*
Y4139000D01*
X7037000Y4064000D02*
X7187000D01*
X7112000Y3989000D02*
Y4139000D01*
X7164000Y4064000D02*
X7314000D01*
X7239000Y3989000D02*
Y4139000D01*
X7672000Y4318000D02*
X7822000D01*
X7747000Y4243000D02*
Y4393000D01*
X8243500Y4445000D02*
X8393500D01*
X8318500Y4370000D02*
Y4520000D01*
X3227000Y4572000D02*
X3377000D01*
X3302000Y4497000D02*
Y4647000D01*
X4687500Y5270500D02*
X4837500D01*
X4762500Y5195500D02*
Y5345500D01*
X5703500Y5270500D02*
X5853500D01*
X5778500Y5195500D02*
Y5345500D01*
X2973000Y5905500D02*
X3123000D01*
X3048000Y5830500D02*
Y5980500D01*
X3227000Y5905500D02*
X3377000D01*
X3302000Y5830500D02*
Y5980500D01*
X3290500Y5842000D02*
X3440500D01*
X3365500Y5767000D02*
Y5917000D01*
X4116000Y5715000D02*
X4266000D01*
X4191000Y5640000D02*
Y5790000D01*
X4306500Y5715000D02*
X4456500D01*
X4381500Y5640000D02*
Y5790000D01*
X6719500Y6032500D02*
X6869500D01*
X6794500Y5957500D02*
Y6107500D01*
X7315000Y5770000D02*
X7465000D01*
X7390000Y5695000D02*
Y5845000D01*
X3544500Y6350000D02*
X3694500D01*
X3619500Y6275000D02*
Y6425000D01*
X3544500Y6413500D02*
X3694500D01*
X3619500Y6338500D02*
Y6488500D01*
X3735000Y6350000D02*
X3885000D01*
X3810000Y6275000D02*
Y6425000D01*
X3671500Y6413500D02*
X3821500D01*
X3746500Y6338500D02*
Y6488500D01*
X5894000Y6477000D02*
X6044000D01*
X5969000Y6402000D02*
Y6552000D01*
X3735000Y6731000D02*
X3885000D01*
X3810000Y6656000D02*
Y6806000D01*
X3735000Y6604000D02*
X3885000D01*
X3810000Y6529000D02*
Y6679000D01*
X5259000Y6985000D02*
X5409000D01*
X5334000Y6910000D02*
Y7060000D01*
X5894000Y6985000D02*
X6044000D01*
X5969000Y6910000D02*
Y7060000D01*
X2973000Y7493000D02*
X3123000D01*
X3048000Y7418000D02*
Y7568000D01*
X2846000Y7493000D02*
X2996000D01*
X2921000Y7418000D02*
Y7568000D01*
X2719000Y7493000D02*
X2869000D01*
X2794000Y7418000D02*
Y7568000D01*
X2846000Y7366000D02*
X2996000D01*
X2921000Y7291000D02*
Y7441000D01*
X2719000Y7366000D02*
X2869000D01*
X2794000Y7291000D02*
Y7441000D01*
X2973000Y7366000D02*
X3123000D01*
X3048000Y7291000D02*
Y7441000D01*
X3227000Y7175500D02*
X3377000D01*
X3302000Y7100500D02*
Y7250500D01*
X3989000Y7366000D02*
X4139000D01*
X4064000Y7291000D02*
Y7441000D01*
X5335000Y7240000D02*
X5485000D01*
X5410000Y7165000D02*
Y7315000D01*
X5767000Y7366000D02*
X5917000D01*
X5842000Y7291000D02*
Y7441000D01*
X6021000Y7366000D02*
X6171000D01*
X6096000Y7291000D02*
Y7441000D01*
X6275000Y7366000D02*
X6425000D01*
X6350000Y7291000D02*
Y7441000D01*
X6529000Y7366000D02*
X6679000D01*
X6604000Y7291000D02*
Y7441000D01*
X11448050Y6521450D02*
X11434195Y6540500D01*
X11434195D02*
X11413414Y6550025D01*
X11385705*
X11385705D02*
X11364923Y6540500D01*
X11351068Y6521450*
Y6502400*
X11357995Y6483350*
X11357995D02*
X11364923Y6473825D01*
X11378777Y6464300*
X11420341Y6445250*
X11434195Y6435725*
X11434195D02*
X11441123Y6426200D01*
X11448050Y6407150*
Y6378575*
X11434195Y6359525*
X11434195D02*
X11413414Y6350000D01*
X11385705*
X11385705D02*
X11364923Y6359525D01*
X11351068Y6378575*
X11510395Y6550025D02*
Y6350000D01*
X11669723Y6550025D02*
X11572741Y6350000D01*
Y6550025D02*
X11669723D01*
X11572741Y6350000D02*
X11669723D01*
X11732068Y6550025D02*
Y6350000D01*
Y6550025D02*
X11822123D01*
X11732068Y6454775D02*
X11787486D01*
X11732068Y6350000D02*
X11822123D01*
X12930486Y6550025D02*
X12916632Y6540500D01*
X12902777Y6521450*
X12895850Y6502400*
X12888923Y6473825*
Y6426200*
X12895850Y6397625*
X12902777Y6378575*
X12916632Y6359525*
X12930486Y6350000*
X12958195*
X12958195D02*
X12972050Y6359525D01*
X12985905Y6378575*
X12985905D02*
X12992832Y6397625D01*
X12999759Y6426200*
Y6473825*
X12992832Y6502400*
X12985905Y6521450*
X12985905D02*
X12972050Y6540500D01*
X12958195Y6550025*
X12958195D02*
X12930486D01*
X12951268Y6388100D02*
X12992832Y6330950D01*
X13110595Y6550025D02*
Y6350000D01*
X13062105Y6550025D02*
X13159086D01*
X13221432D02*
X13276850Y6454775D01*
Y6350000*
X13332268Y6550025D02*
X13276850Y6454775D01*
X13900305Y6521450D02*
X13886450Y6540500D01*
X13865668Y6550025*
X13837959*
X13817177Y6540500*
X13803323Y6521450*
Y6502400*
X13810250Y6483350*
X13817177Y6473825*
X13831032Y6464300*
X13872595Y6445250*
X13872595D02*
X13886450Y6435725D01*
X13893377Y6426200*
X13900305Y6407150*
X13900305D02*
Y6378575D01*
X13900305D02*
X13886450Y6359525D01*
X13865668Y6350000*
X13837959*
X13817177Y6359525*
X13803323Y6378575*
X13962650Y6550025D02*
X14018068Y6454775D01*
Y6350000*
X14073486Y6550025D02*
X14018068Y6454775D01*
X14135832Y6550025D02*
Y6350000D01*
Y6550025D02*
X14191250Y6350000D01*
X14246668Y6550025D02*
X14191250Y6350000D01*
X14246668Y6550025D02*
Y6350000D01*
X14800850Y6550025D02*
Y6350000D01*
Y6550025D02*
X14863195D01*
X14863195D02*
X14883977Y6540500D01*
X14890905Y6530975*
X14890905D02*
X14897832Y6511925D01*
Y6483350*
X14890905Y6464300*
X14890905D02*
X14883977Y6454775D01*
X14863195Y6445250*
X14863195D02*
X14800850D01*
X14960177Y6550025D02*
Y6350000D01*
X15043305*
X15161068Y6550025D02*
X15105650Y6350000D01*
X15161068Y6550025D02*
X15216486Y6350000D01*
X15126432Y6416675D02*
X15195705D01*
X15327323Y6550025D02*
Y6350000D01*
X15278832Y6550025D02*
X15375814D01*
X15438159D02*
Y6350000D01*
Y6550025D02*
X15528214D01*
X15438159Y6454775D02*
X15493577D01*
X15438159Y6350000D02*
X15528214D01*
X15590559Y6550025D02*
Y6350000D01*
Y6550025D02*
X15639050D01*
X15659832Y6540500*
X15673686Y6521450*
X15680614Y6502400*
X15687541Y6473825*
Y6426200*
X15680614Y6397625*
X15673686Y6378575*
X15659832Y6359525*
X15639050Y6350000*
X15590559*
X16304068Y6550025D02*
Y6350000D01*
X16255577Y6550025D02*
X16352559D01*
X16456468D02*
X16442614Y6540500D01*
X16428759Y6521450*
X16421832Y6502400*
X16414905Y6473825*
X16414905D02*
Y6426200D01*
X16414905D02*
X16421832Y6397625D01*
X16428759Y6378575*
X16442614Y6359525*
X16456468Y6350000*
X16484177*
X16498032Y6359525*
X16511886Y6378575*
X16518814Y6397625*
X16525741Y6426200*
Y6473825*
X16518814Y6502400*
X16511886Y6521450*
X16498032Y6540500*
X16484177Y6550025*
X16456468*
X16588086D02*
Y6350000D01*
X16671214*
X10733964Y5940425D02*
X10713182Y5930900D01*
X10699327Y5902325*
X10692400Y5854700*
Y5826125*
X10699327Y5778500*
X10713182Y5749925*
X10733964Y5740400*
X10747818*
X10768600Y5749925*
X10782455Y5778500*
X10782455D02*
X10789382Y5826125D01*
Y5854700*
X10782455Y5902325*
X10782455D02*
X10768600Y5930900D01*
X10747818Y5940425*
X10733964*
X10858655Y5759450D02*
X10851727Y5749925D01*
X10858655Y5740400*
X10858655D02*
X10865582Y5749925D01*
X10858655Y5759450*
X10941782Y5940425D02*
X11017982D01*
X10976418Y5864225*
X10997200*
X11011055Y5854700*
X11011055D02*
X11017982Y5845175D01*
X11024909Y5816600*
Y5797550*
X11017982Y5768975*
X11004127Y5749925*
X10983345Y5740400*
X10983345D02*
X10962564D01*
X10941782Y5749925*
X10934855Y5759450*
X10934855D02*
X10927927Y5778500D01*
X13079423Y5940425D02*
X13010150Y5740400D01*
X12982441Y5940425D02*
X13079423D01*
X13155623D02*
X13231823D01*
X13190259Y5864225*
X13211041*
X13224895Y5854700*
X13224895D02*
X13231823Y5845175D01*
X13238750Y5816600*
Y5797550*
X13231823Y5768975*
X13217968Y5749925*
X13197186Y5740400*
X13176405*
X13155623Y5749925*
X13148695Y5759450*
X13148695D02*
X13141768Y5778500D01*
X13892800Y5892800D02*
X14197600D01*
X14045200Y5740400D02*
Y6045200D01*
X14728114Y5940425D02*
X14783532Y5845175D01*
Y5740400*
X14838950Y5940425D02*
X14783532Y5845175D01*
X14901295Y5940425D02*
Y5740400D01*
Y5940425D02*
X14991350D01*
X14901295Y5845175D02*
X14956714D01*
X14901295Y5740400D02*
X14991350D01*
X15150677Y5911850D02*
X15136823Y5930900D01*
X15116041Y5940425*
X15088332*
X15067550Y5930900*
X15053695Y5911850*
X15053695D02*
Y5892800D01*
X15053695D02*
X15060623Y5873750D01*
X15067550Y5864225*
X15081405Y5854700*
X15122968Y5835650*
X15136823Y5826125*
X15143750Y5816600*
X15150677Y5797550*
Y5768975*
X15136823Y5749925*
X15116041Y5740400*
X15088332*
X15067550Y5749925*
X15053695Y5768975*
X16078932Y5911850D02*
Y5740400D01*
X16016586Y5826125D02*
X16141277D01*
X16328314Y5978525D02*
X16203623Y5673725D01*
X16390659Y5826125D02*
X16515350D01*
X16619259Y5940425D02*
X16598477Y5930900D01*
X16584623Y5902325*
X16577695Y5854700*
X16577695D02*
Y5826125D01*
X16577695D02*
X16584623Y5778500D01*
X16598477Y5749925*
X16619259Y5740400*
X16633114*
X16653895Y5749925*
X16653895D02*
X16667750Y5778500D01*
X16674677Y5826125*
Y5854700*
X16667750Y5902325*
X16653895Y5930900*
X16653895D02*
X16633114Y5940425D01*
X16619259*
X16743950Y5759450D02*
X16737023Y5749925D01*
X16743950Y5740400*
X16750877Y5749925*
X16743950Y5759450*
X16854786Y5940425D02*
X16834005Y5930900D01*
X16820150Y5902325*
X16813223Y5854700*
Y5826125*
X16820150Y5778500*
X16834005Y5749925*
X16854786Y5740400*
X16868641*
X16889423Y5749925*
X16903277Y5778500*
X16910205Y5826125*
Y5854700*
X16903277Y5902325*
X16889423Y5930900*
X16868641Y5940425*
X16854786*
X10692400Y5292725D02*
X10706255Y5302250D01*
X10706255D02*
X10727036Y5330825D01*
Y5130800*
X13079423Y5264150D02*
X13072495Y5235575D01*
X13072495D02*
X13058641Y5216525D01*
X13037859Y5207000*
X13030932*
X13010150Y5216525*
X12996295Y5235575*
X12996295D02*
X12989368Y5264150D01*
Y5273675*
X12996295Y5302250*
X12996295D02*
X13010150Y5321300D01*
X13030932Y5330825*
X13037859*
X13058641Y5321300*
X13072495Y5302250*
X13072495D02*
X13079423Y5264150D01*
Y5216525*
X13072495Y5168900*
X13072495D02*
X13058641Y5140325D01*
X13037859Y5130800*
X13024005*
X13024005D02*
X13003223Y5140325D01*
X12996295Y5159375*
X13224895Y5302250D02*
X13217968Y5321300D01*
X13197186Y5330825*
X13183332*
X13162550Y5321300*
X13148695Y5292725*
X13148695D02*
X13141768Y5245100D01*
Y5197475*
X13148695Y5159375*
X13148695D02*
X13162550Y5140325D01*
X13183332Y5130800*
X13190259*
X13211041Y5140325*
X13224895Y5159375*
X13224895D02*
X13231823Y5187950D01*
Y5197475*
X13224895Y5226050*
X13224895D02*
X13211041Y5245100D01*
X13190259Y5254625*
X13183332*
X13162550Y5245100*
X13148695Y5226050*
X13148695D02*
X13141768Y5197475D01*
X13892800Y5130800D02*
X14197600Y5435600D01*
X13892800D02*
X14197600Y5130800D01*
X14728114Y5330825D02*
X14783532Y5235575D01*
Y5130800*
X14838950Y5330825D02*
X14783532Y5235575D01*
X14901295Y5330825D02*
Y5130800D01*
Y5330825D02*
X14991350D01*
X14901295Y5235575D02*
X14956714D01*
X14901295Y5130800D02*
X14991350D01*
X15150677Y5302250D02*
X15136823Y5321300D01*
X15116041Y5330825*
X15088332*
X15067550Y5321300*
X15053695Y5302250*
X15053695D02*
Y5283200D01*
X15053695D02*
X15060623Y5264150D01*
X15067550Y5254625*
X15081405Y5245100*
X15122968Y5226050*
X15136823Y5216525*
X15143750Y5207000*
X15150677Y5187950*
Y5159375*
X15136823Y5140325*
X15116041Y5130800*
X15088332*
X15067550Y5140325*
X15053695Y5159375*
X16078932Y5302250D02*
Y5130800D01*
X16016586Y5216525D02*
X16141277D01*
X16328314Y5368925D02*
X16203623Y5064125D01*
X16390659Y5216525D02*
X16515350D01*
X16619259Y5330825D02*
X16598477Y5321300D01*
X16584623Y5292725*
X16577695Y5245100*
X16577695D02*
Y5216525D01*
X16577695D02*
X16584623Y5168900D01*
X16598477Y5140325*
X16619259Y5130800*
X16633114*
X16653895Y5140325*
X16653895D02*
X16667750Y5168900D01*
X16674677Y5216525*
Y5245100*
X16667750Y5292725*
X16653895Y5321300*
X16653895D02*
X16633114Y5330825D01*
X16619259*
X16743950Y5149850D02*
X16737023Y5140325D01*
X16743950Y5130800*
X16750877Y5140325*
X16743950Y5149850*
X16854786Y5330825D02*
X16834005Y5321300D01*
X16820150Y5292725*
X16813223Y5245100*
Y5216525*
X16820150Y5168900*
X16834005Y5140325*
X16854786Y5130800*
X16868641*
X16889423Y5140325*
X16903277Y5168900*
X16910205Y5216525*
Y5245100*
X16903277Y5292725*
X16889423Y5321300*
X16868641Y5330825*
X16854786*
X10733964Y4721225D02*
X10713182Y4711700D01*
X10699327Y4683125*
X10692400Y4635500*
Y4606925*
X10699327Y4559300*
X10713182Y4530725*
X10733964Y4521200*
X10747818*
X10768600Y4530725*
X10782455Y4559300*
X10782455D02*
X10789382Y4606925D01*
Y4635500*
X10782455Y4683125*
X10782455D02*
X10768600Y4711700D01*
X10747818Y4721225*
X10733964*
X10858655Y4540250D02*
X10851727Y4530725D01*
X10858655Y4521200*
X10858655D02*
X10865582Y4530725D01*
X10858655Y4540250*
X11017982Y4654550D02*
X11011055Y4625975D01*
X11011055D02*
X10997200Y4606925D01*
X10976418Y4597400*
X10969491*
X10948709Y4606925*
X10934855Y4625975*
X10934855D02*
X10927927Y4654550D01*
Y4664075*
X10934855Y4692650*
X10934855D02*
X10948709Y4711700D01*
X10969491Y4721225*
X10976418*
X10997200Y4711700*
X11011055Y4692650*
X11011055D02*
X11017982Y4654550D01*
Y4606925*
X11011055Y4559300*
X11011055D02*
X10997200Y4530725D01*
X10976418Y4521200*
X10962564*
X10941782Y4530725*
X10934855Y4549775*
X11239655Y4654550D02*
X11315855Y4521200D01*
Y4654550D02*
X11239655Y4521200D01*
X11544455Y4673600D02*
Y4683125D01*
X11544455D02*
X11551382Y4702175D01*
X11558309Y4711700*
X11572164Y4721225*
X11599873*
X11613727Y4711700*
X11620655Y4702175*
X11620655D02*
X11627582Y4683125D01*
Y4664075*
X11620655Y4645025*
X11620655D02*
X11606800Y4616450D01*
X11537527Y4521200*
X11634509*
X11703782Y4540250D02*
X11696855Y4530725D01*
X11696855D02*
X11703782Y4521200D01*
X11710709Y4530725*
X11703782Y4540250*
X11807691Y4721225D02*
X11786909Y4711700D01*
X11779982Y4692650*
Y4673600*
X11786909Y4654550*
X11800764Y4645025*
X11828473Y4635500*
X11849255Y4625975*
X11849255D02*
X11863109Y4606925D01*
X11870036Y4587875*
Y4559300*
X11863109Y4540250*
X11856182Y4530725*
X11835400Y4521200*
X11807691*
X11786909Y4530725*
X11779982Y4540250*
X11773055Y4559300*
X11773055D02*
Y4587875D01*
X11773055D02*
X11779982Y4606925D01*
X11793836Y4625975*
X11814618Y4635500*
X11842327Y4645025*
X11856182Y4654550*
X11863109Y4673600*
Y4692650*
X11856182Y4711700*
X11835400Y4721225*
X11807691*
X13075959D02*
X13152159D01*
X13110595Y4645025*
X13110595D02*
X13131377D01*
X13145232Y4635500*
X13152159Y4625975*
X13159086Y4597400*
Y4578350*
X13152159Y4549775*
X13138305Y4530725*
X13138305D02*
X13117523Y4521200D01*
X13096741*
X13075959Y4530725*
X13069032Y4540250*
X13062105Y4559300*
X13892800Y4521200D02*
X14197600D01*
Y4826000*
X13892800*
Y4521200*
X14045200Y4673600D02*
Y4826000D01*
X14728114Y4721225D02*
X14783532Y4625975D01*
Y4521200*
X14838950Y4721225D02*
X14783532Y4625975D01*
X14901295Y4721225D02*
Y4521200D01*
Y4721225D02*
X14991350D01*
X14901295Y4625975D02*
X14956714D01*
X14901295Y4521200D02*
X14991350D01*
X15150677Y4692650D02*
X15136823Y4711700D01*
X15116041Y4721225*
X15088332*
X15067550Y4711700*
X15053695Y4692650*
X15053695D02*
Y4673600D01*
X15053695D02*
X15060623Y4654550D01*
X15067550Y4645025*
X15081405Y4635500*
X15122968Y4616450*
X15136823Y4606925*
X15143750Y4597400*
X15150677Y4578350*
Y4549775*
X15136823Y4530725*
X15116041Y4521200*
X15088332*
X15067550Y4530725*
X15053695Y4549775*
X16078932Y4692650D02*
Y4521200D01*
X16016586Y4606925D02*
X16141277D01*
X16328314Y4759325D02*
X16203623Y4454525D01*
X16390659Y4606925D02*
X16515350D01*
X16619259Y4721225D02*
X16598477Y4711700D01*
X16584623Y4683125*
X16577695Y4635500*
X16577695D02*
Y4606925D01*
X16577695D02*
X16584623Y4559300D01*
X16598477Y4530725*
X16619259Y4521200*
X16633114*
X16653895Y4530725*
X16653895D02*
X16667750Y4559300D01*
X16674677Y4606925*
Y4635500*
X16667750Y4683125*
X16653895Y4711700*
X16653895D02*
X16633114Y4721225D01*
X16619259*
X16743950Y4540250D02*
X16737023Y4530725D01*
X16743950Y4521200*
X16750877Y4530725*
X16743950Y4540250*
X16854786Y4721225D02*
X16834005Y4711700D01*
X16820150Y4683125*
X16813223Y4635500*
Y4606925*
X16820150Y4559300*
X16834005Y4530725*
X16854786Y4521200*
X16868641*
X16889423Y4530725*
X16903277Y4559300*
X16910205Y4606925*
Y4635500*
X16903277Y4683125*
X16889423Y4711700*
X16868641Y4721225*
X16854786*
X10733964Y4111625D02*
X10713182Y4102100D01*
X10699327Y4073525*
X10692400Y4025900*
Y3997325*
X10699327Y3949700*
X10713182Y3921125*
X10733964Y3911600*
X10747818*
X10768600Y3921125*
X10782455Y3949700*
X10782455D02*
X10789382Y3997325D01*
Y4025900*
X10782455Y4073525*
X10782455D02*
X10768600Y4102100D01*
X10747818Y4111625*
X10733964*
X10858655Y3930650D02*
X10851727Y3921125D01*
X10858655Y3911600*
X10858655D02*
X10865582Y3921125D01*
X10858655Y3930650*
X11017982Y4044950D02*
X11011055Y4016375D01*
X11011055D02*
X10997200Y3997325D01*
X10976418Y3987800*
X10969491*
X10948709Y3997325*
X10934855Y4016375*
X10934855D02*
X10927927Y4044950D01*
Y4054475*
X10934855Y4083050*
X10934855D02*
X10948709Y4102100D01*
X10969491Y4111625*
X10976418*
X10997200Y4102100*
X11011055Y4083050*
X11011055D02*
X11017982Y4044950D01*
Y3997325*
X11011055Y3949700*
X11011055D02*
X10997200Y3921125D01*
X10976418Y3911600*
X10962564*
X10941782Y3921125*
X10934855Y3940175*
X13075959Y4111625D02*
X13152159D01*
X13110595Y4035425*
X13110595D02*
X13131377D01*
X13145232Y4025900*
X13152159Y4016375*
X13159086Y3987800*
Y3968750*
X13152159Y3940175*
X13138305Y3921125*
X13138305D02*
X13117523Y3911600D01*
X13096741*
X13075959Y3921125*
X13069032Y3930650*
X13062105Y3949700*
X14045200Y3911600D02*
X14197600Y4064000D01*
X14045200Y4216400*
X13892800Y4064000*
X14045200Y3911600*
Y4064000D02*
Y4216400D01*
X14728114Y4111625D02*
X14783532Y4016375D01*
Y3911600*
X14838950Y4111625D02*
X14783532Y4016375D01*
X14901295Y4111625D02*
Y3911600D01*
Y4111625D02*
X14991350D01*
X14901295Y4016375D02*
X14956714D01*
X14901295Y3911600D02*
X14991350D01*
X15150677Y4083050D02*
X15136823Y4102100D01*
X15116041Y4111625*
X15088332*
X15067550Y4102100*
X15053695Y4083050*
X15053695D02*
Y4064000D01*
X15053695D02*
X15060623Y4044950D01*
X15067550Y4035425*
X15081405Y4025900*
X15122968Y4006850*
X15136823Y3997325*
X15143750Y3987800*
X15150677Y3968750*
Y3940175*
X15136823Y3921125*
X15116041Y3911600*
X15088332*
X15067550Y3921125*
X15053695Y3940175*
X16078932Y4083050D02*
Y3911600D01*
X16016586Y3997325D02*
X16141277D01*
X16328314Y4149725D02*
X16203623Y3844925D01*
X16390659Y3997325D02*
X16515350D01*
X16619259Y4111625D02*
X16598477Y4102100D01*
X16584623Y4073525*
X16577695Y4025900*
X16577695D02*
Y3997325D01*
X16577695D02*
X16584623Y3949700D01*
X16598477Y3921125*
X16619259Y3911600*
X16633114*
X16653895Y3921125*
X16653895D02*
X16667750Y3949700D01*
X16674677Y3997325*
Y4025900*
X16667750Y4073525*
X16653895Y4102100*
X16653895D02*
X16633114Y4111625D01*
X16619259*
X16743950Y3930650D02*
X16737023Y3921125D01*
X16743950Y3911600*
X16750877Y3921125*
X16743950Y3930650*
X16854786Y4111625D02*
X16834005Y4102100D01*
X16820150Y4073525*
X16813223Y4025900*
Y3997325*
X16820150Y3949700*
X16834005Y3921125*
X16854786Y3911600*
X16868641*
X16889423Y3921125*
X16903277Y3949700*
X16910205Y3997325*
Y4025900*
X16903277Y4073525*
X16889423Y4102100*
X16868641Y4111625*
X16854786*
X10692400Y3463925D02*
X10706255Y3473450D01*
X10706255D02*
X10727036Y3502025D01*
Y3302000*
X10796309Y3321050D02*
X10789382Y3311525D01*
X10796309Y3302000*
X10803236Y3311525*
X10796309Y3321050*
X10872509Y3454400D02*
Y3463925D01*
X10879436Y3482975*
X10886364Y3492500*
X10900218Y3502025*
X10927927*
X10941782Y3492500*
X10948709Y3482975*
X10955636Y3463925*
Y3444875*
X10948709Y3425825*
X10934855Y3397250*
X10934855D02*
X10865582Y3302000D01*
X10962564*
X13069032Y3454400D02*
Y3463925D01*
X13075959Y3482975*
X13082886Y3492500*
X13096741Y3502025*
X13124450*
X13138305Y3492500*
X13138305D02*
X13145232Y3482975D01*
X13152159Y3463925*
Y3444875*
X13145232Y3425825*
X13131377Y3397250*
X13062105Y3302000*
X13062105D02*
X13159086D01*
X13892800D02*
X14197600D01*
X13892800Y3606800*
X14197600*
X13892800Y3302000*
X14728114Y3502025D02*
X14783532Y3406775D01*
Y3302000*
X14838950Y3502025D02*
X14783532Y3406775D01*
X14901295Y3502025D02*
Y3302000D01*
Y3502025D02*
X14991350D01*
X14901295Y3406775D02*
X14956714D01*
X14901295Y3302000D02*
X14991350D01*
X15150677Y3473450D02*
X15136823Y3492500D01*
X15116041Y3502025*
X15088332*
X15067550Y3492500*
X15053695Y3473450*
X15053695D02*
Y3454400D01*
X15053695D02*
X15060623Y3435350D01*
X15067550Y3425825*
X15081405Y3416300*
X15122968Y3397250*
X15136823Y3387725*
X15143750Y3378200*
X15150677Y3359150*
Y3330575*
X15136823Y3311525*
X15116041Y3302000*
X15088332*
X15067550Y3311525*
X15053695Y3330575*
X16078932Y3473450D02*
Y3302000D01*
X16016586Y3387725D02*
X16141277D01*
X16328314Y3540125D02*
X16203623Y3235325D01*
X16390659Y3387725D02*
X16515350D01*
X16619259Y3502025D02*
X16598477Y3492500D01*
X16584623Y3463925*
X16577695Y3416300*
X16577695D02*
Y3387725D01*
X16577695D02*
X16584623Y3340100D01*
X16598477Y3311525*
X16619259Y3302000*
X16633114*
X16653895Y3311525*
X16653895D02*
X16667750Y3340100D01*
X16674677Y3387725*
Y3416300*
X16667750Y3463925*
X16653895Y3492500*
X16653895D02*
X16633114Y3502025D01*
X16619259*
X16743950Y3321050D02*
X16737023Y3311525D01*
X16743950Y3302000*
X16750877Y3311525*
X16743950Y3321050*
X16854786Y3502025D02*
X16834005Y3492500D01*
X16820150Y3463925*
X16813223Y3416300*
Y3387725*
X16820150Y3340100*
X16834005Y3311525*
X16854786Y3302000*
X16868641*
X16889423Y3311525*
X16903277Y3340100*
X16910205Y3387725*
Y3416300*
X16903277Y3463925*
X16889423Y3492500*
X16868641Y3502025*
X16854786*
X10733964Y2892425D02*
X10713182Y2882900D01*
X10699327Y2854325*
X10692400Y2806700*
Y2778125*
X10699327Y2730500*
X10713182Y2701925*
X10733964Y2692400*
X10747818*
X10768600Y2701925*
X10782455Y2730500*
X10782455D02*
X10789382Y2778125D01*
Y2806700*
X10782455Y2854325*
X10782455D02*
X10768600Y2882900D01*
X10747818Y2892425*
X10733964*
X10858655Y2711450D02*
X10851727Y2701925D01*
X10858655Y2692400*
X10858655D02*
X10865582Y2701925D01*
X10858655Y2711450*
X10962564Y2892425D02*
X10941782Y2882900D01*
X10934855Y2863850*
X10934855D02*
Y2844800D01*
X10934855D02*
X10941782Y2825750D01*
X10955636Y2816225*
X10983345Y2806700*
X10983345D02*
X11004127Y2797175D01*
X11017982Y2778125*
X11024909Y2759075*
Y2730500*
X11017982Y2711450*
X11011055Y2701925*
X11011055D02*
X10990273Y2692400D01*
X10962564*
X10941782Y2701925*
X10934855Y2711450*
X10934855D02*
X10927927Y2730500D01*
Y2759075*
X10934855Y2778125*
X10934855D02*
X10948709Y2797175D01*
X10969491Y2806700*
X10997200Y2816225*
X11011055Y2825750*
X11011055D02*
X11017982Y2844800D01*
Y2863850*
X11011055Y2882900*
X11011055D02*
X10990273Y2892425D01*
X10962564*
X11121891D02*
X11101109Y2882900D01*
X11094182Y2863850*
Y2844800*
X11101109Y2825750*
X11114964Y2816225*
X11142673Y2806700*
X11163455Y2797175*
X11163455D02*
X11177309Y2778125D01*
X11184236Y2759075*
Y2730500*
X11177309Y2711450*
X11170382Y2701925*
X11149600Y2692400*
X11121891*
X11101109Y2701925*
X11094182Y2711450*
X11087255Y2730500*
X11087255D02*
Y2759075D01*
X11087255D02*
X11094182Y2778125D01*
X11108036Y2797175*
X11128818Y2806700*
X11156527Y2816225*
X11170382Y2825750*
X11177309Y2844800*
Y2863850*
X11170382Y2882900*
X11149600Y2892425*
X11121891*
X11336636Y2825750D02*
X11329709Y2797175D01*
X11315855Y2778125*
X11315855D02*
X11295073Y2768600D01*
X11288145*
X11288145D02*
X11267364Y2778125D01*
X11253509Y2797175*
X11246582Y2825750*
Y2835275*
X11253509Y2863850*
X11267364Y2882900*
X11288145Y2892425*
X11288145D02*
X11295073D01*
X11315855Y2882900*
X11315855D02*
X11329709Y2863850D01*
X11336636Y2825750*
Y2778125*
X11329709Y2730500*
X11315855Y2701925*
X11315855D02*
X11295073Y2692400D01*
X11281218*
X11260436Y2701925*
X11253509Y2720975*
X13048250Y2892425D02*
X12978977Y2759075D01*
X13082886*
X13048250Y2892425D02*
Y2692400D01*
X13152159Y2844800D02*
Y2854325D01*
X13159086Y2873375*
X13166014Y2882900*
X13179868Y2892425*
X13207577*
X13221432Y2882900*
X13228359Y2873375*
X13235286Y2854325*
Y2835275*
X13228359Y2816225*
X13214505Y2787650*
X13214505D02*
X13145232Y2692400D01*
X13242214*
X13892800D02*
X14197600Y2997200D01*
Y2692400*
X13892800Y2997200*
Y2692400*
X14728114Y2892425D02*
X14783532Y2797175D01*
Y2692400*
X14838950Y2892425D02*
X14783532Y2797175D01*
X14901295Y2892425D02*
Y2692400D01*
Y2892425D02*
X14991350D01*
X14901295Y2797175D02*
X14956714D01*
X14901295Y2692400D02*
X14991350D01*
X15150677Y2863850D02*
X15136823Y2882900D01*
X15116041Y2892425*
X15088332*
X15067550Y2882900*
X15053695Y2863850*
X15053695D02*
Y2844800D01*
X15053695D02*
X15060623Y2825750D01*
X15067550Y2816225*
X15081405Y2806700*
X15122968Y2787650*
X15136823Y2778125*
X15143750Y2768600*
X15150677Y2749550*
Y2720975*
X15136823Y2701925*
X15116041Y2692400*
X15088332*
X15067550Y2701925*
X15053695Y2720975*
X16078932Y2863850D02*
Y2692400D01*
X16016586Y2778125D02*
X16141277D01*
X16328314Y2930525D02*
X16203623Y2625725D01*
X16390659Y2778125D02*
X16515350D01*
X16619259Y2892425D02*
X16598477Y2882900D01*
X16584623Y2854325*
X16577695Y2806700*
X16577695D02*
Y2778125D01*
X16577695D02*
X16584623Y2730500D01*
X16598477Y2701925*
X16619259Y2692400*
X16633114*
X16653895Y2701925*
X16653895D02*
X16667750Y2730500D01*
X16674677Y2778125*
Y2806700*
X16667750Y2854325*
X16653895Y2882900*
X16653895D02*
X16633114Y2892425D01*
X16619259*
X16743950Y2711450D02*
X16737023Y2701925D01*
X16743950Y2692400*
X16750877Y2701925*
X16743950Y2711450*
X16854786Y2892425D02*
X16834005Y2882900D01*
X16820150Y2854325*
X16813223Y2806700*
Y2778125*
X16820150Y2730500*
X16834005Y2701925*
X16854786Y2692400*
X16868641*
X16889423Y2701925*
X16903277Y2730500*
X16910205Y2778125*
Y2806700*
X16903277Y2854325*
X16889423Y2882900*
X16868641Y2892425*
X16854786*
G74*
X0Y0D02*
M02*
