%
T1C.01181F095S3
X012Y0125
X013Y018
X01325Y023
X013Y02325
X012Y02325
X013Y02825
X0115Y029
X011Y029
X012Y029
X011Y0295
X0115Y0295
X012Y0295
X015Y0265
X015Y026
X01425Y02525
X01475Y02525
X015Y025
X01425Y025
X0145Y01275
X01425Y0125
X014Y01225
X01375Y012
X01425Y01125
X014Y011
X0145Y01075
X01675Y0155
X0205Y01625
X01675Y0165
X01875Y02075
X0165Y0225
X01725Y0225
X016Y029
X023Y029
X024Y029
X025Y029
X021299Y028504
X0235Y0275
X021Y0275
X0235Y0255
X02275Y02075
X024Y013
X024Y012
X024Y0115
X0295Y0115
X03Y0115
X029Y0115
X0285Y0115
X0265Y01225
X029Y01225
X03Y013
X0295Y013
X029Y013
X0285Y013
X028Y013
X02975Y0145
X0295Y01475
X02975Y0155
X0295Y01575
X0275Y016
X0285Y016
X028Y016
X0305Y017
X029094Y022717
X02675Y02375
X026Y029
X03275Y0175
X03425Y01425
X034Y0135
X034Y013
X0345Y013
X0335Y013
X0315Y0125
X034Y0125
T2C.035F197S55
X013Y03
X014Y03
X015Y03
X014Y031
X013Y031
X015Y031
X016Y031
X017Y031
X018Y031
X019Y031
X02Y031
X017Y03
X019Y03
X016Y03
X02Y03
X018Y03
X021Y03
X022Y03
X023Y03
X024Y03
X025Y03
X023Y031
X022Y031
X024Y031
X021Y031
X025Y031
X026Y031
X027Y031
X028Y031
X029Y031
X03Y031
X027Y03
X026Y03
X03Y03
X028Y03
X029Y03
X028253Y027482
X030253Y027482
X032Y03
X031Y03
X032Y031
X031Y031
T3C.03543F197S55
X03375Y019
X03375Y022
X03375Y02475
X016374Y015G85X015626Y015
X016374Y0125G85X015626Y0125
X0175Y014124G85X0175Y013376
T4C.03937F197S55
X011Y0135
X012Y0135
X013Y0135
X011Y0145
X012Y0145
X013Y0145
X011543Y016441
X012543Y016441
X011Y019
X012Y019
X013Y019
X011Y02
X012Y02
X013Y02
X011Y021
X012Y021
X013Y021
X011Y022
X012Y022
X013Y022
X0125Y0245
X0115Y0245
X012Y0265
X013Y0265
X011Y0265
X012Y0275
X013Y0275
X011Y0275
X017Y028
X018Y028
X017Y026
X018Y026
X017Y024
X016Y024
X015Y024
X018Y024
X02Y01225
X021Y01225
X022Y01225
X02Y024
X023Y024
X022Y024
X021Y024
X019Y024
X02Y026
X021Y026
X022Y026
X023Y026
X019Y026
X021Y028
X022Y028
X023Y028
X019Y028
X02Y028
X024Y028
X024Y026
X026Y025
X024Y024
X026Y024
X026Y023
X026Y022
X026Y021
X026Y02
X026Y019
X026Y018
X026Y017
X026Y016
X026Y015
X026Y014
X026Y013
X026Y012
X026Y011
X032Y011
X032Y012
X032Y013
X032Y014
X032Y015
X032Y016
X032Y017
X032Y018
X032Y019
X032Y02
X032Y021
X032Y022
X032Y023
X032Y024
X032Y025
X033Y027
X033Y029
X035Y029
X034Y029
X034Y027
X035Y027
X03475Y02475
X03475Y022
X03475Y019
T5C.04724F139S55
X016Y026
X016Y028
M30
