*
*
G04 PADS 9.3 Build Number: 433611 generated Gerber (RS-274-X) file*
G04 PC Version=2.1*
*
%IN "canDynamix.pcb"*%
*
%MOMM*%
*
%FSLAX35Y35*%
*
*
*
*
G04 PC Standard Apertures*
*
*
G04 Thermal Relief Aperture macro.*
%AMTER*
1,1,$1,0,0*
1,0,$1-$2,0,0*
21,0,$3,$4,0,0,45*
21,0,$3,$4,0,0,135*
%
*
*
G04 Annular Aperture macro.*
%AMANN*
1,1,$1,0,0*
1,0,$2,0,0*
%
*
*
G04 Odd Aperture macro.*
%AMODD*
1,1,$1,0,0*
1,0,$1-0.005,0,0*
%
*
*
G04 PC Custom Aperture Macros*
*
*
*
*
*
*
G04 PC Aperture Table*
*
%ADD010O,3.52X1.5*%
%ADD011O,1.5X3.52*%
%ADD012C,1.524*%
%ADD013R,1.524X1.524*%
%ADD014R,0.9652X0.762*%
%ADD015R,1.6X1.6*%
%ADD016R,2.2X2.2*%
%ADD017R,2X2*%
%ADD018C,2*%
%ADD019C,0.254*%
%ADD030C,0.0254*%
*
*
*
*
G04 PC Copper Outlines (0)*
G04 Layer Name canDynamix.pcb - dark (0)*
%LPD*%
*
*
G04 PC Area=Custom_Thermal*
*
G04 PC Custom Flashes*
G04 Layer Name canDynamix.pcb - flashes*
%LPD*%
*
*
G04 PC Circuitry*
G04 Layer Name canDynamix.pcb - circuitry*
%LPD*%
*
G54D10*
G01X4064000Y3810000D03*
Y3175000D03*
G54D11*
X4445000Y3492500D03*
G54D12*
X3302000Y7620000D03*
Y7874000D03*
X3556000Y7620000D03*
Y7874000D03*
X3810000Y7620000D03*
Y7874000D03*
X4064000Y7620000D03*
Y7874000D03*
X4318000Y7620000D03*
Y7874000D03*
X4572000Y7620000D03*
Y7874000D03*
X4826000Y7620000D03*
Y7874000D03*
X5080000Y7620000D03*
Y7874000D03*
X5334000Y7620000D03*
Y7874000D03*
X5588000Y7620000D03*
Y7874000D03*
X5842000Y7620000D03*
Y7874000D03*
X6096000Y7620000D03*
Y7874000D03*
X6350000Y7620000D03*
Y7874000D03*
X6604000Y7620000D03*
Y7874000D03*
X6858000Y7620000D03*
Y7874000D03*
X7112000Y7620000D03*
Y7874000D03*
X7366000Y7620000D03*
Y7874000D03*
X7620000Y7620000D03*
Y7874000D03*
X7874000Y7620000D03*
Y7874000D03*
X8128000Y7620000D03*
Y7874000D03*
X8826500Y4826000D03*
Y5588000D03*
Y6286500D03*
X3048000Y3429000D03*
X3302000D03*
X3048000Y3683000D03*
X3302000D03*
X3048000Y6985000D03*
X3302000D03*
X3048000Y6731000D03*
X3302000D03*
X6604000Y6350000D03*
Y6096000D03*
Y5842000D03*
Y5588000D03*
Y5334000D03*
Y5080000D03*
Y4826000D03*
Y4572000D03*
Y4318000D03*
Y4064000D03*
Y3810000D03*
Y3556000D03*
Y3302000D03*
Y3048000D03*
Y2794000D03*
X8128000D03*
Y3048000D03*
Y3302000D03*
Y3556000D03*
Y3810000D03*
Y4064000D03*
Y4318000D03*
Y4572000D03*
Y4826000D03*
Y5080000D03*
Y5334000D03*
Y5588000D03*
Y5842000D03*
Y6096000D03*
Y6350000D03*
X8636000Y6858000D03*
X8890000D03*
Y7366000D03*
X8636000D03*
X8382000D03*
X6096000Y6096000D03*
X5842000D03*
X5588000D03*
X5334000D03*
X5080000D03*
X4826000D03*
X4572000D03*
X4318000D03*
X4064000D03*
X3810000D03*
X4318000Y6604000D03*
X4572000D03*
X4826000D03*
X5080000D03*
X5334000D03*
X5588000D03*
X5842000D03*
X6096000D03*
X4318000Y7112000D03*
X4572000D03*
X4826000D03*
X5080000D03*
X5334000D03*
X5588000D03*
X5842000D03*
X6096000D03*
X3048000Y4826000D03*
X3302000D03*
X3048000Y5080000D03*
X3302000D03*
X3048000Y5334000D03*
X3302000D03*
X3048000Y5588000D03*
X3302000D03*
X7176300Y6980400D03*
X7684300D03*
G54D13*
X8572500Y4826000D03*
Y5588000D03*
Y6286500D03*
G54D14*
X8557260Y3810000D03*
X8714740D03*
X7096760Y4508500D03*
X7254240D03*
X7096760Y4318000D03*
X7254240D03*
X6525260Y6858000D03*
X6682740D03*
X6525260Y7112000D03*
X6682740D03*
X8557260Y4318000D03*
X8714740D03*
X8557260Y4064000D03*
X8714740D03*
G54D15*
X2794000Y3429000D03*
Y3683000D03*
Y6985000D03*
Y6731000D03*
X8382000Y6858000D03*
X2794000Y4826000D03*
Y5080000D03*
Y5334000D03*
Y5588000D03*
G54D16*
X4064000Y6604000D03*
Y7112000D03*
G54D17*
X5080000Y3111500D03*
X2931800Y4176100D03*
X3175000Y6223000D03*
G54D18*
X5334000Y3111500D03*
X5588000D03*
X3185800Y4176100D03*
X2921000Y6223000D03*
G54D19*
X2540000Y2590000D02*
G75*
G03X2590000Y2540000I50000J0D01*
G01X2540000Y2590000D02*
Y8090000D01*
X2590000Y8140000D02*
G03X2540000Y8090000I0J-50000D01*
G01X2590000Y8140000D02*
X9140000D01*
X9190000Y8090000D02*
G03X9140000Y8140000I-50000J0D01*
G01X9190000Y8090000D02*
Y4590000D01*
X9140000Y4540000D02*
G03X9190000Y4590000I0J50000D01*
G01X9140000Y4540000D02*
X8990000D01*
G03X8940000Y4490000I0J-50000*
G01Y2590000*
X8890000Y2540000D02*
G03X8940000Y2590000I0J50000D01*
G01X8890000Y2540000D02*
X2590000D01*
X3040000Y2890000D02*
G03X3040000I-150000J0D01*
G01Y7790000D02*
G03X3040000I-150000J0D01*
G01X8840000D02*
G03X8840000I-150000J0D01*
G01Y2890000D02*
G03X8840000I-150000J0D01*
G54D30*
G01X5905500Y3746500D02*
X5941060D01*
X5684520D02*
X5717540D01*
X5905500Y3743960D02*
X5941060D01*
X5684520D02*
X5717540D01*
X5892800Y3741420D02*
X5958840D01*
X5669280D02*
X5732780D01*
X5384800D02*
X5504180D01*
X5267960D02*
X5290820D01*
X5176520D02*
X5199380D01*
X5082540D02*
X5107940D01*
X5892800Y3738880D02*
X5958840D01*
X5669280D02*
X5732780D01*
X5384800D02*
X5504180D01*
X5267960D02*
X5290820D01*
X5176520D02*
X5199380D01*
X5082540D02*
X5107940D01*
X5877560Y3736340D02*
X5969000D01*
X5659120D02*
X5748020D01*
X5384800D02*
X5519420D01*
X5262880D02*
X5295900D01*
X5166360D02*
X5204460D01*
X5074920D02*
X5113020D01*
X5877560Y3733800D02*
X5969000D01*
X5659120D02*
X5748020D01*
X5384800D02*
X5519420D01*
X5262880D02*
X5295900D01*
X5166360D02*
X5204460D01*
X5074920D02*
X5113020D01*
X5872480Y3731260D02*
X5979160D01*
X5648960D02*
X5755640D01*
X5384800D02*
X5529580D01*
X5257800D02*
X5300980D01*
X5166360D02*
X5209540D01*
X5074920D02*
X5118100D01*
X5872480Y3728720D02*
X5979160D01*
X5648960D02*
X5755640D01*
X5384800D02*
X5529580D01*
X5257800D02*
X5300980D01*
X5166360D02*
X5209540D01*
X5074920D02*
X5118100D01*
X5867400Y3726180D02*
X5984240D01*
X5646420D02*
X5760720D01*
X5384800D02*
X5539740D01*
X5252720D02*
X5306060D01*
X5161280D02*
X5214620D01*
X5069840D02*
X5118100D01*
X5867400Y3723640D02*
X5984240D01*
X5646420D02*
X5760720D01*
X5384800D02*
X5539740D01*
X5252720D02*
X5306060D01*
X5161280D02*
X5214620D01*
X5069840D02*
X5118100D01*
X5862320Y3721100D02*
X5994400D01*
X5641340D02*
X5765800D01*
X5384800D02*
X5542280D01*
X5252720D02*
X5306060D01*
X5161280D02*
X5214620D01*
X5069840D02*
X5123180D01*
X5862320Y3718560D02*
X5994400D01*
X5641340D02*
X5765800D01*
X5384800D02*
X5542280D01*
X5252720D02*
X5306060D01*
X5161280D02*
X5214620D01*
X5069840D02*
X5123180D01*
X5857240Y3716020D02*
X5999480D01*
X5636260D02*
X5770880D01*
X5384800D02*
X5547360D01*
X5252720D02*
X5306060D01*
X5161280D02*
X5214620D01*
X5069840D02*
X5123180D01*
X5857240Y3713480D02*
X5999480D01*
X5636260D02*
X5770880D01*
X5384800D02*
X5547360D01*
X5252720D02*
X5306060D01*
X5161280D02*
X5214620D01*
X5069840D02*
X5123180D01*
X5852160Y3710940D02*
X5999480D01*
X5631180D02*
X5775960D01*
X5384800D02*
X5547360D01*
X5252720D02*
X5306060D01*
X5161280D02*
X5214620D01*
X5069840D02*
X5123180D01*
X5941060Y3708400D02*
X5994400D01*
X5852160D02*
X5900420D01*
X5717540D02*
X5775960D01*
X5626100D02*
X5684520D01*
X5491480D02*
X5552440D01*
X5384800D02*
X5417820D01*
X5252720D02*
X5306060D01*
X5161280D02*
X5214620D01*
X5069840D02*
X5123180D01*
X5941060Y3705860D02*
X5994400D01*
X5852160D02*
X5900420D01*
X5717540D02*
X5775960D01*
X5626100D02*
X5684520D01*
X5491480D02*
X5552440D01*
X5384800D02*
X5417820D01*
X5252720D02*
X5306060D01*
X5161280D02*
X5214620D01*
X5069840D02*
X5123180D01*
X5953760Y3703320D02*
X5989320D01*
X5849620D02*
X5892800D01*
X5727700D02*
X5781040D01*
X5621020D02*
X5674360D01*
X5504180D02*
X5552440D01*
X5384800D02*
X5417820D01*
X5257800D02*
X5306060D01*
X5161280D02*
X5209540D01*
X5069840D02*
X5118100D01*
X5953760Y3700780D02*
X5989320D01*
X5849620D02*
X5892800D01*
X5727700D02*
X5781040D01*
X5621020D02*
X5674360D01*
X5504180D02*
X5552440D01*
X5384800D02*
X5417820D01*
X5257800D02*
X5306060D01*
X5161280D02*
X5209540D01*
X5069840D02*
X5118100D01*
X5958840Y3698240D02*
X5984240D01*
X5849620D02*
X5887720D01*
X5737860D02*
X5786120D01*
X5621020D02*
X5669280D01*
X5514340D02*
X5557520D01*
X5384800D02*
X5417820D01*
X5257800D02*
X5300980D01*
X5166360D02*
X5209540D01*
X5074920D02*
X5118100D01*
X5958840Y3695700D02*
X5984240D01*
X5849620D02*
X5887720D01*
X5737860D02*
X5786120D01*
X5621020D02*
X5669280D01*
X5514340D02*
X5557520D01*
X5384800D02*
X5417820D01*
X5257800D02*
X5300980D01*
X5166360D02*
X5209540D01*
X5074920D02*
X5118100D01*
X5969000Y3693160D02*
X5979160D01*
X5849620D02*
X5887720D01*
X5742940D02*
X5786120D01*
X5615940D02*
X5659120D01*
X5519420D02*
X5557520D01*
X5384800D02*
X5417820D01*
X5262880D02*
X5295900D01*
X5171440D02*
X5204460D01*
X5080000D02*
X5113020D01*
X5969000Y3690620D02*
X5979160D01*
X5849620D02*
X5887720D01*
X5742940D02*
X5786120D01*
X5615940D02*
X5659120D01*
X5519420D02*
X5557520D01*
X5384800D02*
X5417820D01*
X5262880D02*
X5295900D01*
X5171440D02*
X5204460D01*
X5080000D02*
X5113020D01*
X5849620Y3688080D02*
X5882640D01*
X5748020D02*
X5791200D01*
X5615940D02*
X5659120D01*
X5519420D02*
X5557520D01*
X5384800D02*
X5417820D01*
X5278120D02*
X5283200D01*
X5181600D02*
X5194300D01*
X5087620D02*
X5097780D01*
X5849620Y3685540D02*
X5882640D01*
X5748020D02*
X5791200D01*
X5615940D02*
X5659120D01*
X5519420D02*
X5557520D01*
X5384800D02*
X5417820D01*
X5278120D02*
X5283200D01*
X5181600D02*
X5194300D01*
X5087620D02*
X5097780D01*
X5844540Y3683000D02*
X5882640D01*
X5750560D02*
X5791200D01*
X5610860D02*
X5654040D01*
X5524500D02*
X5557520D01*
X5384800D02*
X5417820D01*
X5844540Y3680460D02*
X5882640D01*
X5750560D02*
X5791200D01*
X5610860D02*
X5654040D01*
X5524500D02*
X5557520D01*
X5384800D02*
X5417820D01*
X5844540Y3677920D02*
X5882640D01*
X5750560D02*
X5791200D01*
X5610860D02*
X5648960D01*
X5524500D02*
X5562600D01*
X5384800D02*
X5417820D01*
X5844540Y3675380D02*
X5882640D01*
X5750560D02*
X5791200D01*
X5610860D02*
X5648960D01*
X5524500D02*
X5562600D01*
X5384800D02*
X5417820D01*
X5844540Y3672840D02*
X5882640D01*
X5755640D02*
X5796280D01*
X5610860D02*
X5648960D01*
X5524500D02*
X5562600D01*
X5384800D02*
X5417820D01*
X5844540Y3670300D02*
X5882640D01*
X5755640D02*
X5796280D01*
X5610860D02*
X5648960D01*
X5524500D02*
X5562600D01*
X5384800D02*
X5417820D01*
X5849620Y3667760D02*
X5887720D01*
X5755640D02*
X5796280D01*
X5605780D02*
X5646420D01*
X5524500D02*
X5562600D01*
X5384800D02*
X5417820D01*
X5849620Y3665220D02*
X5887720D01*
X5755640D02*
X5796280D01*
X5605780D02*
X5646420D01*
X5524500D02*
X5562600D01*
X5384800D02*
X5417820D01*
X5849620Y3662680D02*
X5887720D01*
X5755640D02*
X5796280D01*
X5605780D02*
X5646420D01*
X5524500D02*
X5562600D01*
X5384800D02*
X5417820D01*
X5849620Y3660140D02*
X5897880D01*
X5760720D02*
X5798820D01*
X5605780D02*
X5646420D01*
X5524500D02*
X5562600D01*
X5384800D02*
X5417820D01*
X5849620Y3657600D02*
X5897880D01*
X5760720D02*
X5798820D01*
X5605780D02*
X5646420D01*
X5524500D02*
X5562600D01*
X5384800D02*
X5417820D01*
X5849620Y3655060D02*
X5900420D01*
X5760720D02*
X5798820D01*
X5605780D02*
X5646420D01*
X5524500D02*
X5557520D01*
X5384800D02*
X5417820D01*
X5849620Y3652520D02*
X5900420D01*
X5760720D02*
X5798820D01*
X5605780D02*
X5646420D01*
X5524500D02*
X5557520D01*
X5384800D02*
X5417820D01*
X5849620Y3649980D02*
X5915660D01*
X5760720D02*
X5798820D01*
X5605780D02*
X5641340D01*
X5519420D02*
X5557520D01*
X5384800D02*
X5417820D01*
X5273040D02*
X5288280D01*
X5181600D02*
X5194300D01*
X5087620D02*
X5102860D01*
X5849620Y3647440D02*
X5915660D01*
X5760720D02*
X5798820D01*
X5605780D02*
X5641340D01*
X5519420D02*
X5557520D01*
X5384800D02*
X5417820D01*
X5273040D02*
X5288280D01*
X5181600D02*
X5194300D01*
X5087620D02*
X5102860D01*
X5852160Y3644900D02*
X5930900D01*
X5760720D02*
X5798820D01*
X5600700D02*
X5641340D01*
X5514340D02*
X5557520D01*
X5384800D02*
X5417820D01*
X5262880D02*
X5295900D01*
X5171440D02*
X5204460D01*
X5080000D02*
X5113020D01*
X5852160Y3642360D02*
X5930900D01*
X5760720D02*
X5798820D01*
X5600700D02*
X5641340D01*
X5514340D02*
X5557520D01*
X5384800D02*
X5417820D01*
X5262880D02*
X5295900D01*
X5171440D02*
X5204460D01*
X5080000D02*
X5113020D01*
X5857240Y3639820D02*
X5946140D01*
X5760720D02*
X5798820D01*
X5600700D02*
X5641340D01*
X5509260D02*
X5557520D01*
X5384800D02*
X5417820D01*
X5257800D02*
X5300980D01*
X5166360D02*
X5209540D01*
X5074920D02*
X5118100D01*
X5857240Y3637280D02*
X5946140D01*
X5760720D02*
X5798820D01*
X5600700D02*
X5641340D01*
X5509260D02*
X5557520D01*
X5384800D02*
X5417820D01*
X5257800D02*
X5300980D01*
X5166360D02*
X5209540D01*
X5074920D02*
X5118100D01*
X5862320Y3634740D02*
X5958840D01*
X5765800D02*
X5798820D01*
X5600700D02*
X5641340D01*
X5504180D02*
X5552440D01*
X5384800D02*
X5417820D01*
X5257800D02*
X5306060D01*
X5161280D02*
X5209540D01*
X5069840D02*
X5118100D01*
X5862320Y3632200D02*
X5958840D01*
X5765800D02*
X5798820D01*
X5600700D02*
X5641340D01*
X5504180D02*
X5552440D01*
X5384800D02*
X5417820D01*
X5257800D02*
X5306060D01*
X5161280D02*
X5209540D01*
X5069840D02*
X5118100D01*
X5867400Y3629660D02*
X5969000D01*
X5765800D02*
X5798820D01*
X5600700D02*
X5641340D01*
X5384800D02*
X5552440D01*
X5252720D02*
X5306060D01*
X5161280D02*
X5214620D01*
X5069840D02*
X5123180D01*
X5867400Y3627120D02*
X5969000D01*
X5765800D02*
X5798820D01*
X5600700D02*
X5641340D01*
X5384800D02*
X5552440D01*
X5252720D02*
X5306060D01*
X5161280D02*
X5214620D01*
X5069840D02*
X5123180D01*
X5872480Y3624580D02*
X5979160D01*
X5765800D02*
X5798820D01*
X5600700D02*
X5641340D01*
X5384800D02*
X5547360D01*
X5252720D02*
X5306060D01*
X5161280D02*
X5214620D01*
X5069840D02*
X5123180D01*
X5872480Y3622040D02*
X5979160D01*
X5765800D02*
X5798820D01*
X5600700D02*
X5641340D01*
X5384800D02*
X5547360D01*
X5252720D02*
X5306060D01*
X5161280D02*
X5214620D01*
X5069840D02*
X5123180D01*
X5882640Y3619500D02*
X5984240D01*
X5765800D02*
X5798820D01*
X5600700D02*
X5641340D01*
X5384800D02*
X5542280D01*
X5252720D02*
X5306060D01*
X5161280D02*
X5214620D01*
X5069840D02*
X5123180D01*
X5882640Y3616960D02*
X5984240D01*
X5765800D02*
X5798820D01*
X5600700D02*
X5641340D01*
X5384800D02*
X5542280D01*
X5252720D02*
X5306060D01*
X5161280D02*
X5214620D01*
X5069840D02*
X5123180D01*
X5892800Y3614420D02*
X5989320D01*
X5765800D02*
X5798820D01*
X5600700D02*
X5641340D01*
X5384800D02*
X5539740D01*
X5252720D02*
X5306060D01*
X5161280D02*
X5214620D01*
X5069840D02*
X5123180D01*
X5905500Y3611880D02*
X5994400D01*
X5765800D02*
X5798820D01*
X5600700D02*
X5641340D01*
X5384800D02*
X5534660D01*
X5252720D02*
X5306060D01*
X5161280D02*
X5214620D01*
X5069840D02*
X5118100D01*
X5905500Y3609340D02*
X5994400D01*
X5765800D02*
X5798820D01*
X5600700D02*
X5641340D01*
X5384800D02*
X5534660D01*
X5252720D02*
X5306060D01*
X5161280D02*
X5214620D01*
X5069840D02*
X5118100D01*
X5925820Y3606800D02*
X5999480D01*
X5760720D02*
X5798820D01*
X5600700D02*
X5641340D01*
X5384800D02*
X5524500D01*
X5257800D02*
X5300980D01*
X5166360D02*
X5209540D01*
X5074920D02*
X5118100D01*
X5925820Y3604260D02*
X5999480D01*
X5760720D02*
X5798820D01*
X5600700D02*
X5641340D01*
X5384800D02*
X5524500D01*
X5257800D02*
X5300980D01*
X5166360D02*
X5209540D01*
X5074920D02*
X5118100D01*
X5935980Y3601720D02*
X6004560D01*
X5760720D02*
X5798820D01*
X5600700D02*
X5641340D01*
X5384800D02*
X5514340D01*
X5262880D02*
X5295900D01*
X5171440D02*
X5204460D01*
X5074920D02*
X5113020D01*
X5935980Y3599180D02*
X6004560D01*
X5760720D02*
X5798820D01*
X5600700D02*
X5641340D01*
X5384800D02*
X5514340D01*
X5262880D02*
X5295900D01*
X5171440D02*
X5204460D01*
X5074920D02*
X5113020D01*
X5951220Y3596640D02*
X6004560D01*
X5760720D02*
X5798820D01*
X5605780D02*
X5641340D01*
X5466080D02*
X5509260D01*
X5384800D02*
X5422900D01*
X5267960D02*
X5290820D01*
X5176520D02*
X5199380D01*
X5082540D02*
X5107940D01*
X5951220Y3594100D02*
X6004560D01*
X5760720D02*
X5798820D01*
X5605780D02*
X5641340D01*
X5466080D02*
X5509260D01*
X5384800D02*
X5422900D01*
X5267960D02*
X5290820D01*
X5176520D02*
X5199380D01*
X5082540D02*
X5107940D01*
X5953760Y3591560D02*
X6004560D01*
X5760720D02*
X5798820D01*
X5605780D02*
X5646420D01*
X5471160D02*
X5514340D01*
X5384800D02*
X5417820D01*
X5953760Y3589020D02*
X6004560D01*
X5760720D02*
X5798820D01*
X5605780D02*
X5646420D01*
X5471160D02*
X5514340D01*
X5384800D02*
X5417820D01*
X5963920Y3586480D02*
X6007100D01*
X5760720D02*
X5798820D01*
X5605780D02*
X5646420D01*
X5476240D02*
X5514340D01*
X5384800D02*
X5417820D01*
X5963920Y3583940D02*
X6007100D01*
X5760720D02*
X5798820D01*
X5605780D02*
X5646420D01*
X5476240D02*
X5514340D01*
X5384800D02*
X5417820D01*
X5969000Y3581400D02*
X6007100D01*
X5760720D02*
X5796280D01*
X5605780D02*
X5646420D01*
X5476240D02*
X5519420D01*
X5384800D02*
X5417820D01*
X5969000Y3578860D02*
X6007100D01*
X5760720D02*
X5796280D01*
X5605780D02*
X5646420D01*
X5476240D02*
X5519420D01*
X5384800D02*
X5417820D01*
X5969000Y3576320D02*
X6007100D01*
X5755640D02*
X5796280D01*
X5605780D02*
X5646420D01*
X5481320D02*
X5519420D01*
X5384800D02*
X5417820D01*
X5969000Y3573780D02*
X6007100D01*
X5755640D02*
X5796280D01*
X5605780D02*
X5646420D01*
X5481320D02*
X5519420D01*
X5384800D02*
X5417820D01*
X5969000Y3571240D02*
X6007100D01*
X5755640D02*
X5796280D01*
X5605780D02*
X5648960D01*
X5481320D02*
X5524500D01*
X5384800D02*
X5417820D01*
X5969000Y3568700D02*
X6007100D01*
X5755640D02*
X5796280D01*
X5605780D02*
X5648960D01*
X5481320D02*
X5524500D01*
X5384800D02*
X5417820D01*
X5969000Y3566160D02*
X6007100D01*
X5750560D02*
X5791200D01*
X5610860D02*
X5648960D01*
X5486400D02*
X5524500D01*
X5384800D02*
X5417820D01*
X5969000Y3563620D02*
X6007100D01*
X5750560D02*
X5791200D01*
X5610860D02*
X5648960D01*
X5486400D02*
X5524500D01*
X5384800D02*
X5417820D01*
X5969000Y3561080D02*
X6007100D01*
X5750560D02*
X5791200D01*
X5610860D02*
X5654040D01*
X5486400D02*
X5529580D01*
X5384800D02*
X5417820D01*
X5969000Y3558540D02*
X6007100D01*
X5857240D02*
X5867400D01*
X5748020D02*
X5791200D01*
X5615940D02*
X5654040D01*
X5486400D02*
X5529580D01*
X5384800D02*
X5417820D01*
X5969000Y3556000D02*
X6007100D01*
X5857240D02*
X5867400D01*
X5748020D02*
X5791200D01*
X5615940D02*
X5654040D01*
X5486400D02*
X5529580D01*
X5384800D02*
X5417820D01*
X5969000Y3553460D02*
X6007100D01*
X5852160D02*
X5872480D01*
X5742940D02*
X5786120D01*
X5615940D02*
X5659120D01*
X5491480D02*
X5534660D01*
X5384800D02*
X5417820D01*
X5267960D02*
X5290820D01*
X5176520D02*
X5199380D01*
X5082540D02*
X5107940D01*
X5969000Y3550920D02*
X6007100D01*
X5852160D02*
X5872480D01*
X5742940D02*
X5786120D01*
X5615940D02*
X5659120D01*
X5491480D02*
X5534660D01*
X5384800D02*
X5417820D01*
X5267960D02*
X5290820D01*
X5176520D02*
X5199380D01*
X5082540D02*
X5107940D01*
X5963920Y3548380D02*
X6004560D01*
X5849620D02*
X5882640D01*
X5737860D02*
X5786120D01*
X5621020D02*
X5664200D01*
X5494020D02*
X5534660D01*
X5384800D02*
X5417820D01*
X5257800D02*
X5300980D01*
X5166360D02*
X5204460D01*
X5074920D02*
X5113020D01*
X5963920Y3545840D02*
X6004560D01*
X5849620D02*
X5882640D01*
X5737860D02*
X5786120D01*
X5621020D02*
X5664200D01*
X5494020D02*
X5534660D01*
X5384800D02*
X5417820D01*
X5257800D02*
X5300980D01*
X5166360D02*
X5204460D01*
X5074920D02*
X5113020D01*
X5958840Y3543300D02*
X6004560D01*
X5844540D02*
X5887720D01*
X5732780D02*
X5781040D01*
X5621020D02*
X5669280D01*
X5494020D02*
X5539740D01*
X5384800D02*
X5417820D01*
X5257800D02*
X5300980D01*
X5166360D02*
X5209540D01*
X5069840D02*
X5118100D01*
X5958840Y3540760D02*
X6004560D01*
X5844540D02*
X5887720D01*
X5732780D02*
X5781040D01*
X5621020D02*
X5669280D01*
X5494020D02*
X5539740D01*
X5384800D02*
X5417820D01*
X5257800D02*
X5300980D01*
X5166360D02*
X5209540D01*
X5069840D02*
X5118100D01*
X5951220Y3538220D02*
X6004560D01*
X5839460D02*
X5897880D01*
X5722620D02*
X5781040D01*
X5626100D02*
X5679440D01*
X5494020D02*
X5539740D01*
X5384800D02*
X5417820D01*
X5252720D02*
X5306060D01*
X5161280D02*
X5214620D01*
X5069840D02*
X5123180D01*
X5951220Y3535680D02*
X6004560D01*
X5839460D02*
X5897880D01*
X5722620D02*
X5781040D01*
X5626100D02*
X5679440D01*
X5494020D02*
X5539740D01*
X5384800D02*
X5417820D01*
X5252720D02*
X5306060D01*
X5161280D02*
X5214620D01*
X5069840D02*
X5123180D01*
X5925820Y3533140D02*
X5999480D01*
X5839460D02*
X5920740D01*
X5626100D02*
X5775960D01*
X5499100D02*
X5542280D01*
X5384800D02*
X5417820D01*
X5252720D02*
X5306060D01*
X5161280D02*
X5214620D01*
X5069840D02*
X5123180D01*
X5925820Y3530600D02*
X5999480D01*
X5839460D02*
X5920740D01*
X5626100D02*
X5775960D01*
X5499100D02*
X5542280D01*
X5384800D02*
X5417820D01*
X5252720D02*
X5306060D01*
X5161280D02*
X5214620D01*
X5069840D02*
X5123180D01*
X5844540Y3528060D02*
X5999480D01*
X5631180D02*
X5770880D01*
X5499100D02*
X5542280D01*
X5384800D02*
X5417820D01*
X5252720D02*
X5306060D01*
X5161280D02*
X5214620D01*
X5069840D02*
X5123180D01*
X5844540Y3525520D02*
X5999480D01*
X5631180D02*
X5770880D01*
X5499100D02*
X5542280D01*
X5384800D02*
X5417820D01*
X5252720D02*
X5306060D01*
X5161280D02*
X5214620D01*
X5069840D02*
X5123180D01*
X5849620Y3522980D02*
X5994400D01*
X5636260D02*
X5765800D01*
X5504180D02*
X5547360D01*
X5384800D02*
X5417820D01*
X5252720D02*
X5306060D01*
X5161280D02*
X5214620D01*
X5069840D02*
X5123180D01*
X5849620Y3520440D02*
X5994400D01*
X5636260D02*
X5765800D01*
X5504180D02*
X5547360D01*
X5384800D02*
X5417820D01*
X5252720D02*
X5306060D01*
X5161280D02*
X5214620D01*
X5069840D02*
X5123180D01*
X5852160Y3517900D02*
X5989320D01*
X5641340D02*
X5760720D01*
X5504180D02*
X5547360D01*
X5384800D02*
X5417820D01*
X5252720D02*
X5306060D01*
X5161280D02*
X5214620D01*
X5069840D02*
X5123180D01*
X5852160Y3515360D02*
X5989320D01*
X5641340D02*
X5760720D01*
X5504180D02*
X5547360D01*
X5384800D02*
X5417820D01*
X5252720D02*
X5306060D01*
X5161280D02*
X5214620D01*
X5069840D02*
X5123180D01*
X5862320Y3512820D02*
X5984240D01*
X5646420D02*
X5755640D01*
X5509260D02*
X5552440D01*
X5384800D02*
X5417820D01*
X5257800D02*
X5300980D01*
X5161280D02*
X5209540D01*
X5069840D02*
X5118100D01*
X5867400Y3510280D02*
X5974080D01*
X5654040D02*
X5750560D01*
X5509260D02*
X5552440D01*
X5384800D02*
X5417820D01*
X5257800D02*
X5300980D01*
X5166360D02*
X5209540D01*
X5074920D02*
X5113020D01*
X5867400Y3507740D02*
X5974080D01*
X5654040D02*
X5750560D01*
X5509260D02*
X5552440D01*
X5384800D02*
X5417820D01*
X5257800D02*
X5300980D01*
X5166360D02*
X5209540D01*
X5074920D02*
X5113020D01*
X5882640Y3505200D02*
X5963920D01*
X5664200D02*
X5742940D01*
X5514340D02*
X5557520D01*
X5384800D02*
X5417820D01*
X5262880D02*
X5295900D01*
X5171440D02*
X5199380D01*
X5080000D02*
X5107940D01*
X5882640Y3502660D02*
X5963920D01*
X5664200D02*
X5742940D01*
X5514340D02*
X5557520D01*
X5384800D02*
X5417820D01*
X5262880D02*
X5295900D01*
X5171440D02*
X5199380D01*
X5080000D02*
X5107940D01*
X5897880Y3500120D02*
X5951220D01*
X5679440D02*
X5722620D01*
X5897880Y3497580D02*
X5951220D01*
X5679440D02*
X5722620D01*
G74*
X0Y0D02*
M02*
